{
    "asset" : {
        "generator" : "Khronos glTF Blender I/O v1.5.17",
        "version" : "2.0"
    },
    "scene" : 0,
    "scenes" : [
        {
            "name" : "Scene",
            "nodes" : [
                0,
                1,
                2,
                3,
                4,
                5
            ]
        }
    ],
    "nodes" : [
        {
            "name" : "Light",
            "rotation" : [
                0.16907575726509094,
                0.7558803558349609,
                -0.27217137813568115,
                0.570947527885437
            ],
            "translation" : [
                4.076245307922363,
                5.903861999511719,
                -1.0054539442062378
            ]
        },
        {
            "name" : "Camera",
            "rotation" : [
                0.483536034822464,
                0.33687159419059753,
                -0.20870360732078552,
                0.7804827094078064
            ],
            "translation" : [
                7.358891487121582,
                4.958309173583984,
                6.925790786743164
            ]
        },
        {
            "mesh" : 0,
            "name" : "FaceBuilderHead"
        },
        {
            "name" : "fbCamera",
            "rotation" : [
                0.5785580277442932,
                0.0003932652762159705,
                -0.025593101978302002,
                0.8152394890785217
            ],
            "translation" : [
                0.13348394632339478,
                1.7907341718673706,
                5.672052383422852
            ]
        },
        {
            "name" : "fbCamera.001",
            "rotation" : [
                0.5799766778945923,
                0.3061602711677551,
                -0.3168775737285614,
                0.6851872205734253
            ],
            "translation" : [
                5.79597282409668,
                0.11439592391252518,
                4.610147953033447
            ]
        },
        {
            "name" : "fbCamera.002",
            "rotation" : [
                0.5797402262687683,
                0.2727178633213043,
                -0.16175203025341034,
                0.7505748271942139
            ],
            "translation" : [
                2.756749153137207,
                0.5562563538551331,
                3.764760971069336
            ]
        }
    ],
    "materials" : [
        {
            "doubleSided" : true,
            "name" : "kt_facebuilder_material",
            "pbrMetallicRoughness" : {
                "baseColorTexture" : {
                    "index" : 0
                },
                "metallicFactor" : 0,
                "roughnessFactor" : 0.5
            }
        }
    ],
    "meshes" : [
        {
            "name" : "FaceBuilderHead_mesh",
            "primitives" : [
                {
                    "attributes" : {
                        "POSITION" : 0,
                        "NORMAL" : 1,
                        "TEXCOORD_0" : 2
                    },
                    "indices" : 3,
                    "material" : 0
                }
            ]
        }
    ],
    "textures" : [
        {
            "sampler" : 0,
            "source" : 0
        }
    ],
    "images" : [
        {
            "bufferView" : 4,
            "mimeType" : "image/png",
            "name" : "kt_facebuilder_texture"
        }
    ],
    "accessors" : [
        {
            "bufferView" : 0,
            "componentType" : 5126,
            "count" : 17071,
            "max" : [
                0.9339393377304077,
                1.3640410900115967,
                1.2939791679382324
            ],
            "min" : [
                -0.9673970341682434,
                -1.0898735523223877,
                -0.8789212703704834
            ],
            "type" : "VEC3"
        },
        {
            "bufferView" : 1,
            "componentType" : 5126,
            "count" : 17071,
            "type" : "VEC3"
        },
        {
            "bufferView" : 2,
            "componentType" : 5126,
            "count" : 17071,
            "type" : "VEC2"
        },
        {
            "bufferView" : 3,
            "componentType" : 5123,
            "count" : 101778,
            "type" : "SCALAR"
        }
    ],
    "bufferViews" : [
        {
            "buffer" : 0,
            "byteLength" : 204852,
            "byteOffset" : 0
        },
        {
            "buffer" : 0,
            "byteLength" : 204852,
            "byteOffset" : 204852
        },
        {
            "buffer" : 0,
            "byteLength" : 136568,
            "byteOffset" : 409704
        },
        {
            "buffer" : 0,
            "byteLength" : 203556,
            "byteOffset" : 546272
        },
        {
            "buffer" : 0,
            "byteLength" : 1004734,
            "byteOffset" : 749828
        }
    ],
    "samplers" : [
        {
            "magFilter" : 9729,
            "minFilter" : 9987
        }
    ],
    "buffers" : [
        {
            "byteLength" : 1754564,
            "uri" : "data:application/octet-stream;base64,"
        }
    ]
}
